<svg id="Layer_1" data-name="Layer 1" xmlns="http://www.w3.org/2000/svg" viewBox="0 0 592.05 590.94"><defs><style>.cls-1{fill:none;}.cls-2{fill:#c7e2f6;}.cls-3{font-size:80px;fill:#fff;font-family:OpenSans-ExtraBold, Open Sans;font-weight:800;letter-spacing:0.01em;}.cls-4{font-size:120px;fill:#1b3764;font-family:Sacramento-Regular, Sacramento;letter-spacing:0.01em;}</style></defs><path class="cls-1" d="M352.51,138c-.56-.56-1.11-1.13-1.68-1.67-2.25-2.1-4.49-2-6.67.09-1.14,1.09-2.24,2.22-3.35,3.34-4.69,4.71-4.71,5.7-.06,10.35l62.64,62.64h23.86Q389.89,175.39,352.51,138Z"/><path class="cls-1" d="M296.25,360.34h-3.8C293.75,361.65,294.72,361.93,296.25,360.34Z"/><path class="cls-1" d="M145.77,407.28C143.74,413,142,418,140.15,423c-.78,2.12,0,3.6,1.49,5,5,5,10,10,15,15,1.25,1.25,2.45,2.31,4.53,1.55,4.42-1.62,8.91-3.06,13.39-4.53,2.09-.68,2.44-1.59.78-3.24C165.68,427.23,156,417.54,145.77,407.28Z"/><path class="cls-1" d="M149,362.83c-8.66,8.66-8.83,18.68-.18,27.46,14.93,15.16,30,30.15,45.12,45.16,3.66,3.64,7.9,6.27,14.59,6.08a19.48,19.48,0,0,0,3-.4c8-1.88,12.07-8.74,17.53-13.83,1.38-1.28-.14-2.26-1-3.1-3.09-3.15-6.26-6.22-9.33-9.39-4-4.06-4.24-7.83-.95-11.15,3.07-3.08,7.31-2.69,11.25,1.12,3.06,3,6.16,5.89,9,9.05,1.88,2.1,3,1.76,4.82-.12,3.88-4.13,7.88-8.18,12-12,2.08-1.92,1.78-3.07-.12-4.82q-5-4.65-9.69-9.69c-3.2-3.46-3.2-7.74-.25-10.55,3.16-3,6.86-2.91,10.47.51q5,4.71,9.69,9.7c1.63,1.72,2.8,2,4.59.14q6-6.36,12.37-12.37c1.87-1.78,1.62-3-.12-4.59-3.22-3-6.31-6.17-9.38-9.35l-.29-.33H151.51Z"/><path class="cls-1" d="M322.57,196.07c-2.89-2.92-4.42-2.49-7.09.18q-8.24,8.26-16.49,16.52h40.19Q330.87,204.41,322.57,196.07Z"/><path class="cls-1" d="M349.79,179.21c-2.76-2.74-5.1-7.55-8.57-7.53s-5.53,5.11-8.63,7.47c-3.58,2.73-2.6,4.64.19,7.4q13.22,13.06,26.34,26.22H383.4Q366.62,196,349.79,179.21Z"/><path class="cls-1" d="M440.51,71.33c-.33.34-.66.68-1,1-2.83,2.74-2.67,5.4.08,8.15q32.12,32.07,64.2,64.19c2.79,2.78,5.35,2.56,8.17-.1,8-7.53,8.05-7.59.31-15.32-4.79-4.79-21.79-22.93-21.79-22.93s-30.11-29-36.35-35.21C447.38,64.37,447.38,64.37,440.51,71.33Z"/><path class="cls-1" d="M478.39,144.27c1.88-1.76,2.16-2.94.15-4.92q-17-16.75-33.78-33.75c-1.68-1.7-2.76-1.94-4.57-.11q-23.82,24-47.83,47.8c-1.92,1.91-1.37,2.89.22,4.46q17,16.81,33.75,33.79c1.88,1.9,3,2,4.81,0,3.87-4.15,14-13.13,18-17.08C452.56,170.93,474.83,147.61,478.39,144.27Z"/><path class="cls-2" d="M292.45,360.34H272.18l.29.33c3.07,3.18,6.16,6.33,9.38,9.35,1.74,1.63,2,2.81.12,4.59q-6.35,6-12.37,12.37c-1.79,1.88-3,1.58-4.59-.14q-4.69-5-9.69-9.7c-3.61-3.42-7.31-3.52-10.47-.51-2.95,2.81-2.95,7.09.25,10.55s6.34,6.59,9.69,9.69c1.9,1.75,2.2,2.9.12,4.82-4.16,3.84-8.16,7.89-12,12-1.77,1.88-2.94,2.22-4.82.12-2.83-3.16-5.93-6.09-9-9.05-3.94-3.81-8.18-4.2-11.25-1.12-3.29,3.32-3,7.09.95,11.15,3.07,3.17,6.24,6.24,9.33,9.39.83.84,2.35,1.82,1,3.1-5.46,5.09-9.56,11.95-17.53,13.83a19.48,19.48,0,0,1-3,.4c-6.69.19-10.93-2.44-14.59-6.08-15.08-15-30.19-30-45.12-45.16-8.65-8.78-8.48-18.8.18-27.46l2.48-2.49H132.92c-6.27,10.09-6.32,21.54.11,32.92a6.25,6.25,0,0,1,.38,5.75q-3.67,10.46-7.06,21a15.76,15.76,0,0,0,3.48,16.29c3,3.16,2.44,4.75-.35,7.52-25.95,25.76-17.54,18.17-43.39,44-5.48,5.49-10.56,10.3-4.43,15.19,1.17.59,4.17,3,8.08.33,2-1.79,8.77-8.68,10.65-10.56,25.43-25.39,13.84-13.79,39.16-39.29,2.62-2.64,4.25-3.28,7.11-.24,5.44,5.82,12.16,7.41,19.81,4.63,6.51-2.35,13.07-4.58,19.64-6.77,1.39-.46,2.7-1.32,4.44-.24,14.43,9,30.83,4.63,43-7.65q41.16-41.58,82.57-82.94H296.25C294.72,361.93,293.75,361.65,292.45,360.34ZM174.6,440.12c-4.48,1.47-9,2.91-13.39,4.53-2.08.76-3.28-.3-4.53-1.55-5-5-10-10-15-15-1.45-1.44-2.27-2.92-1.49-5,1.84-5,3.59-10,5.62-15.76,10.25,10.26,19.91,20,29.61,29.6C177,438.53,176.69,439.44,174.6,440.12Z"/><path class="cls-2" d="M449.18,174.46c-3.44,3.6,4.86,4.16,4.86,4.16s-4.37,14.19-.7,10.93c3.51-3.68,7.88-15.92,7.88-15.92S452.79,171,449.18,174.46Z"/><path class="cls-2" d="M522.25,118.85c-4.77-4.58-20.64-20.08-25.35-24.74h0l.75.77c3.43,3.48-5.82,4.66-5.82,4.66l-1.35,6.79s17,18.14,21.79,22.93C520,137,520,137.05,512,144.58c-2.82,2.66-5.38,2.88-8.17.1q-32.09-32.12-64.2-64.19c-2.75-2.75-2.91-5.41-.08-8.15.34-.33.67-.67,1-1,6.87-7,6.87-7,13.62-.21,6.24,6.24,36.35,35.21,36.35,35.21l-1.71-10.86s4-5.42,8.13-1.36c-8.15-8.3-29.32-30.1-36.8-37.29-7.22-6.94-17.87-6.77-25.16.11-1.84,1.73-3.58,3.55-5.36,5.34-8.9,8.94-9.1,18.73-.34,27.76,2.2,2.28,2.54,3.71.11,6.11Q406,119.23,382.88,142.61c-2.33,2.37-3.64,1.9-5.66-.19q-8-8.35-16.36-16.4c-6.44-6.26-15.54-7.63-22.51-3a46.88,46.88,0,0,0-12.65,12.62c-4.26,6.2-3.55,15.77,1.82,21,3.39,3.31,2.89,4.94-.22,8q-24.1,24-48.17,48.1H299q8.24-8.27,16.49-16.52c2.67-2.67,4.2-3.1,7.09-.18q8.28,8.37,16.61,16.7h19.94Q346,199.63,332.78,186.55c-2.79-2.76-3.77-4.67-.19-7.4,3.1-2.36,5.18-7.45,8.63-7.47s5.81,4.79,8.57,7.53Q366.62,196,383.4,212.77h20l-62.64-62.64c-4.65-4.65-4.63-5.64.06-10.35,1.11-1.12,2.21-2.25,3.35-3.34,2.18-2.06,4.42-2.19,6.67-.09.57.54,1.12,1.11,1.68,1.67q37.38,37.36,74.74,74.75h20.44q-3.13-3.14-6.32-6.22c-1.9-1.82-2.07-3.09-.07-5,4.13-3.89,8.13-7.92,12-12-3.67,3.26.7-10.93.7-10.93s-8.3-.56-4.86-4.16c-4.07,3.95-14.17,12.93-18,17.08-1.84,2-2.93,1.9-4.81,0q-16.75-17-33.75-33.79c-1.59-1.57-2.14-2.55-.22-4.46q24-23.78,47.83-47.8c1.81-1.83,2.89-1.59,4.57.11q16.8,17,33.78,33.75c2,2,1.73,3.16-.15,4.92-3.56,3.34-25.83,26.66-29.21,30.19,3.61-3.49,12-.83,12-.83s-4.37,12.24-7.88,15.92c3.18-2.82,30.85-30.39,33.58-33.63,2.92-3.47,4.93-3.44,8.17-.12,7.31,7.47,17.79,7.35,25.38.23l11.9-14.36v-9.46C530.2,126.84,526.35,122.78,522.25,118.85Z"/><path class="cls-2" d="M488.77,95.47l1.71,10.86,1.35-6.79s9.25-1.18,5.82-4.66l-.75-.77C492.79,90.05,488.77,95.47,488.77,95.47Z"/><path class="cls-2" d="M532.37,141.67,520.47,156C525,151.74,529.44,147.32,532.37,141.67Z"/><text class="cls-3" transform="translate(23.84 282.98)">Find My Vax</text><text class="cls-4" transform="translate(126.84 349.59)">santa clara</text></svg>