<svg id="Layer_1" data-name="Layer 1" xmlns="http://www.w3.org/2000/svg" viewBox="0 0 818.88 215.73"><defs><style>.cls-1{fill:#c7e2f6;}.cls-2{fill:#fff;}.cls-3{fill:#66a5da;}</style></defs><g id="LisKYP.tif"><path class="cls-1" d="M5.51,54.18A25.45,25.45,0,0,1,0,47.52"/><path class="cls-1" d="M0,43.14A18.26,18.26,0,0,1,4.69,37c2.21-2.12,9.57-9.31,11.75-11.46,1.9-1.89,3.77.63,3.77.63l-.8,5s-7.87,8.41-10.1,10.63c-3.58,3.58-3.56,3.6.15,7.1,1.31,1.23,2.49,1.33,3.78,0Q28.12,34,43,19.17c1.27-1.27,1.35-2.5,0-3.77l-.47-.47c-3.18-3.23-3.18-3.23-6.31-.1-2.89,2.89-16.85,16.32-16.85,16.32L18.79,28s-4.29-.54-2.7-2.16C19.57,22.3,29.91,11.65,33.49,8.2a8.29,8.29,0,0,1,11.66.05c.85.81,1.66,1.65,2.49,2.48,4.12,4.14,4.22,8.68.16,12.86-1,1.06-1.18,1.72-.06,2.83Q58.57,37.13,69.28,48c1.08,1.1,1.69.89,2.62-.09,2.48-2.58,5-5.1,7.59-7.6,3-2.9,7.19-3.53,10.42-1.39a21.6,21.6,0,0,1,5.87,5.84,8,8,0,0,1-.84,9.74c-1.57,1.53-1.34,2.29.1,3.73q43.75,43.62,87.42,87.36c5.38,5.39,6.32,12,2.61,18.57a2.88,2.88,0,0,0-.17,2.67q1.69,4.85,3.27,9.74a7.32,7.32,0,0,1-1.62,7.55c-1.37,1.46-1.13,2.2.17,3.49,12,11.93,8.12,8.42,20.1,20.4,2.55,2.55,4.9,4.78,2.06,7a3.15,3.15,0,0,1-3.75.16c-.91-.83-4.06-4-4.93-4.89-11.79-11.77-6.42-6.4-18.15-18.21-1.22-1.23-2-1.52-3.29-.11a8,8,0,0,1-9.19,2.14c-3-1.09-6-2.12-9.1-3.14-.64-.21-1.25-.61-2.05-.11-6.69,4.16-14.29,2.15-19.92-3.54-28.68-29-57.59-57.7-86.37-86.56-1.32-1.33-2-1.46-3.4-.06a8.13,8.13,0,0,1-11.13,0C36.68,99.88,35.83,99,35,98.1c-4.32-4.34-4.29-9,.08-13.39,2.37-2.38,4.72-4.79,7.14-7.11.88-.85,1-1.44,0-2.31-1.92-1.8-3.77-3.67-5.59-5.57C35,68,33,62.34,33,62.34s3.91-1.23,5.58.38c1.89,1.83,6.57,6,8.36,7.92.85.92,1.36.88,2.23,0C54.32,65.38,59.54,60.18,64.78,55c.74-.73,1-1.18.1-2.07q-11.13-11-22.16-22.15c-.84-.85-1.34-.74-2.12,0Q32.82,38.67,25,46.45c-.93.92-.81,1.47.06,2.28,1.66,1.55,12,12.36,13.54,14s-2.25,1.93-2.25,1.93,2,6.58.32,5.07c-1.47-1.31-14.29-14.09-15.56-15.59s-2.28-1.59-3.78-.06c-3.39,3.47-8.25,3.41-11.77.11A25.45,25.45,0,0,1,0,47.52ZM156.83,183.68c7-7,14-13.9,20.91-20.93,4-4.07,3.93-8.71-.08-12.73q-38.58-38.59-77.15-77.2c-1.23-1.24-1.94-1.43-3.28-.08Q82.13,88,66.87,103.12c-1.17,1.16-1.46,1.92-.08,3.13,1.75,1.53,3.36,3.24,5,4.94.78.83,1.33.87,2.13,0,1.44-1.55,3-3,4.49-4.5,1.74-1.65,3.55-1.68,5-.16,1.3,1.35,1.2,3.27-.33,4.89s-3,3-4.49,4.49c-.67.64-1,1.1-.15,1.92,2.08,2,4.08,4,6,6,.68.7,1.11.66,1.75,0,1.41-1.48,2.87-2.92,4.33-4.35,1.84-1.79,3.78-2,5.21-.61,1.6,1.56,1.46,3.3-.5,5.34-1.32,1.36-2.65,2.73-4,4-.86.79-1.07,1.37-.09,2.28,1.92,1.79,3.78,3.66,5.58,5.58.87.93,1.46.87,2.28,0,1.28-1.4,2.66-2.71,4-4,2-2,3.75-2.15,5.33-.58s1.22,3.42-.69,5.37c-1.33,1.36-2.65,2.73-4,4-.77.72-1,1.22-.09,2.07,2,1.9,4,3.87,5.88,5.89.79.83,1.24.64,1.92-.07,1.46-1.54,3-3,4.49-4.49,1.71-1.62,3.7-1.68,5-.26s1.33,3.22-.39,5c-1.42,1.47-2.86,2.94-4.35,4.33-.8.76-.92,1.31,0,2.13q2.94,2.79,5.73,5.73c.83.88,1.37.74,2.12-.06q2.19-2.31,4.5-4.5c1.67-1.58,3.39-1.63,4.85-.23s1.37,3.28-.12,4.88-2.93,3.06-4.49,4.5c-.88.81-1,1.34,0,2.23,1.93,1.78,3.78,3.66,5.58,5.57.81.88,1.36,1,2.23.06,1.31-1.47,2.75-2.83,4.17-4.2,1.82-1.76,3.79-1.94,5.21-.51s1.39,3.28-.44,5.16c-1.42,1.47-2.89,2.89-4.33,4.35-.38.39-1.08.85-.45,1.44,2.54,2.36,4.44,5.54,8.13,6.41a8.67,8.67,0,0,0,1.38.18A8.54,8.54,0,0,0,156.83,183.68ZM42.45,96c1.31.84,2.25-.46,3.12-1.34L88.81,51.45c2.15-2.16,2.14-2.61,0-4.8-.52-.52-1-1-1.56-1.55a2,2,0,0,0-3.09,0l-.78.77Q61.66,67.54,40,89.23c-.66.65-1.54,1.2-1.41,2.8A10,10,0,0,0,42.45,96Zm14-.22c1.47,1.28,2.53,3.74,4.33,3.72,1.65,0,2.81-2.32,4.14-3.65,9.22-9.18,18.38-18.4,27.62-27.54,1.29-1.28,1.74-2.17.09-3.43-1.44-1.1-2.4-3.45-4-3.46s-2.69,2.21-4,3.49q-14.06,14-28.06,28c-.45.45-.86,1-1.37,1.5A15,15,0,0,0,56.41,95.8Zm109,88.54c-.76.76-.6,1.18.37,1.5,2.07.68,4.15,1.35,6.2,2.1,1,.35,1.52-.14,2.1-.72,2.32-2.32,4.64-4.65,7-7a2,2,0,0,0,.69-2.33c-.85-2.32-1.66-4.66-2.61-7.31C174.41,175.38,169.94,179.87,165.44,184.34Z"/></g><path class="cls-2" d="M224.05,110.78h-19V39.39h42.19V54.87H224.05V68.5h21.39V84H224.05Z"/><path class="cls-2" d="M257.45,41.69c0-2.86.79-5,2.39-6.4s4.17-2.1,7.71-2.1,6.14.72,7.77,2.15,2.44,3.55,2.44,6.35q0,8.4-10.21,8.4T257.45,41.69ZM277,110.78H257.94V55.46H277Z"/><path class="cls-2" d="M325.27,110.78V80.61q0-5.52-1.59-8.33a5.43,5.43,0,0,0-5.1-2.81,7.39,7.39,0,0,0-7,3.86q-2.16,3.86-2.15,13.23v24.22H290.36V55.46h14.4l2.39,6.83h1.13A15.08,15.08,0,0,1,315,56.44a23.77,23.77,0,0,1,9.94-2q9.18,0,14.28,5.32t5.1,15v36Z"/><path class="cls-2" d="M374.54,111.76a16.58,16.58,0,0,1-10.33-3.37,21.43,21.43,0,0,1-6.84-9.91A44.13,44.13,0,0,1,355,83.19q0-13.47,5.42-21.09a17.28,17.28,0,0,1,14.89-7.62,17.05,17.05,0,0,1,8.13,1.86,18,18,0,0,1,6.37,6.25h.39a91.53,91.53,0,0,1-.93-13V34.8h19.24v76h-14.4l-4.1-7h-.74Q384.31,111.75,374.54,111.76Zm7.81-15.09q4.59,0,6.47-2.88t2-8.89V83.39q0-7.32-2.1-10.43c-1.4-2.06-3.6-3.1-6.6-3.1a6.45,6.45,0,0,0-5.83,3.54q-2.07,3.54-2.08,10.09t2.1,9.81A6.67,6.67,0,0,0,382.35,96.67Z"/><path class="cls-2" d="M479.86,110.78l-14.6-51.41h-.44q1,13.13,1,20.41v31H448.76V39.39h25.68l14.89,50.69h.39l14.6-50.69h25.73v71.39H512.33V79.48c0-1.63,0-3.43.07-5.42s.27-6.85.66-14.6h-.44l-14.4,51.32Z"/><path class="cls-2" d="M537.62,55.46h20.12l9.37,31.74a30.57,30.57,0,0,1,.93,6h.39a32.63,32.63,0,0,1,1.18-5.91l9.61-31.83h19.49L576.83,114.3q-4.2,11.22-10.33,15.87t-16,4.63a38,38,0,0,1-7.81-.83V119a27,27,0,0,0,5.91.59,9.62,9.62,0,0,0,4.44-1,10,10,0,0,0,3.32-2.76,23.7,23.7,0,0,0,3-5.83Z"/><path class="cls-2" d="M672.49,39.39h21.58l-23.39,71.39H648L624.68,39.39h21.68l9.72,36.19q3,12.06,3.32,16.79c.23-2.28.68-5.12,1.37-8.54s1.28-6.11,1.8-8.06Z"/><path class="cls-2" d="M736.74,110.78l-3.66-7.32h-.39a21.69,21.69,0,0,1-7.86,6.54,26,26,0,0,1-10.35,1.76q-7.82,0-12.31-4.69t-4.49-13.18q0-8.83,6.15-13.16t17.83-4.86l9.22-.29v-.79q0-6.83-6.73-6.83-6.06,0-15.38,4.1l-5.52-12.6q9.66-5,24.41-5,10.65,0,16.48,5.28T750,74.5v36.28Zm-14.16-12.5a8.62,8.62,0,0,0,5.94-2.2A7.29,7.29,0,0,0,731,90.37v-4.3l-4.39.2q-9.44.35-9.43,6.93Q717.16,98.29,722.58,98.28Z"/><path class="cls-2" d="M774.68,82.56l-16.89-27.1h21.68L787.87,71l8.59-15.53h21.73l-17.33,27.1,18,28.22H797.19L787.87,94l-9.28,16.8H756.86Z"/><path class="cls-3" d="M313.27,159.89q-.4,1.1-1,2.46c-.38.91-.83,1.87-1.33,2.87a7.47,7.47,0,0,1-1.26,1.81,2.27,2.27,0,0,1-1.68.65,2.45,2.45,0,0,1-1.85-.72,2.34,2.34,0,0,1-.68-1.67,2,2,0,0,1,.07-.58,5.17,5.17,0,0,1,.34-.79,41.81,41.81,0,0,0,2.63-6,42.47,42.47,0,0,0,1.4-5.36c-.31-1.05-.54-1.94-.68-2.67a12,12,0,0,1-.2-2.26A6.32,6.32,0,0,1,310,144a3.05,3.05,0,0,1,2.67-1.41,2.86,2.86,0,0,1,2.49,1.37,5.82,5.82,0,0,1,.93,3.35,11.6,11.6,0,0,1-.21,2.19c-.13.73-.32,1.64-.55,2.73q1.57,3.9,3.15,6.91c1,2,2,3.84,2.8,5.5a47.26,47.26,0,0,1,2,4.68,13,13,0,0,1,.78,4.38,13.17,13.17,0,0,1-1.16,5.47,10.23,10.23,0,0,1-3.83,4.37,3.23,3.23,0,0,0,.69.07h.68a14.78,14.78,0,0,0,7.18-1.78,22.7,22.7,0,0,0,5.91-4.61,36.89,36.89,0,0,0,4.69-6.29,64.21,64.21,0,0,0,3.55-6.87c.46-1.05,1.09-1.57,1.91-1.57a2.19,2.19,0,0,1,1.82.82,2.79,2.79,0,0,1,.64,1.77,2.52,2.52,0,0,1-.2,1q-.75,1.84-1.95,4.2a46.21,46.21,0,0,1-2.87,4.86,42.59,42.59,0,0,1-3.86,4.89,29.37,29.37,0,0,1-4.89,4.27,24.92,24.92,0,0,1-5.91,3,21.21,21.21,0,0,1-7,1.12,22.27,22.27,0,0,1-8.51-1.6,13.84,13.84,0,0,1-6.4-5.3,2.32,2.32,0,0,1-.41-1.3,2.62,2.62,0,0,1,4.45-1.85,1.6,1.6,0,0,0,.48.45c.27.2.6.43,1,.68a6.14,6.14,0,0,0,1.36.65,5,5,0,0,0,1.61.28,5.22,5.22,0,0,0,2.77-.69,5.82,5.82,0,0,0,1.81-1.67,6.72,6.72,0,0,0,1-2.12,7.36,7.36,0,0,0,.31-2,11,11,0,0,0-.55-3.42,23.45,23.45,0,0,0-1.4-3.42c-.57-1.13-1.18-2.31-1.84-3.52A36.82,36.82,0,0,1,313.27,159.89Z"/><path class="cls-3" d="M394.78,166.11c-.19.37-.56,1.13-1.13,2.29s-1.3,2.5-2.19,4-1.93,3.08-3.11,4.72a31.65,31.65,0,0,1-4,4.51,21.47,21.47,0,0,1-4.71,3.38,11.29,11.29,0,0,1-5.33,1.33,9.4,9.4,0,0,1-6.67-2.52,14.73,14.73,0,0,1-3.93-6.36,20,20,0,0,1-5.54,6.18,10.76,10.76,0,0,1-11,1.37,9.78,9.78,0,0,1-3.49-2.6,11.82,11.82,0,0,1-2.22-3.93,14.67,14.67,0,0,1-.79-4.92,23,23,0,0,1,1.81-9.4,21.71,21.71,0,0,1,4.62-6.8,19,19,0,0,1,6.19-4.1,17.39,17.39,0,0,1,6.52-1.37,12.71,12.71,0,0,1,3.9.58,18.45,18.45,0,0,1,3,1.27,12.05,12.05,0,0,1,2,1.26l.75.65a2.84,2.84,0,0,1,.75,1.85,2.54,2.54,0,0,1-.75,1.81,2.38,2.38,0,0,1-1.78.78,2.51,2.51,0,0,1-1.84-.75c-.09-.09-.3-.26-.62-.51A8.47,8.47,0,0,0,364,158a10.68,10.68,0,0,0-1.95-.71,9.63,9.63,0,0,0-2.57-.31,12.16,12.16,0,0,0-4.51,1,12.72,12.72,0,0,0-4.37,3,16.47,16.47,0,0,0-3.32,5.06,17.85,17.85,0,0,0-1.33,7.21,13.19,13.19,0,0,0,.27,2.63,7.19,7.19,0,0,0,1,2.43,5.32,5.32,0,0,0,1.84,1.78,5.68,5.68,0,0,0,2.88.68,6.33,6.33,0,0,0,2.83-.82,10.39,10.39,0,0,0,3.08-2.53,18,18,0,0,0,2.66-4.31,21.5,21.5,0,0,0,1.68-6.15,2.56,2.56,0,0,1,.89-1.61,2.64,2.64,0,0,1,1.78-.65,2.26,2.26,0,0,1,1.67.76,2.72,2.72,0,0,1,.79,1.71c0,.86.13,2.08.27,3.65a22.5,22.5,0,0,0,.92,4.69,11.41,11.41,0,0,0,2.16,4,4.87,4.87,0,0,0,4,1.71,6.69,6.69,0,0,0,3.25-.89,15.09,15.09,0,0,0,3.14-2.36,26.18,26.18,0,0,0,2.94-3.35c.94-1.25,1.79-2.52,2.57-3.79s1.45-2.51,2.05-3.69,1.09-2.21,1.5-3.08a2.63,2.63,0,0,1,1-1.16,2.51,2.51,0,0,1,1.4-.41,2.33,2.33,0,0,1,1.88.85,2.78,2.78,0,0,1,.72,1.81A2.54,2.54,0,0,1,394.78,166.11Z"/><path class="cls-3" d="M405.93,179c.73-1.5,1.58-3.16,2.53-5s2-3.62,3.08-5.46,2.24-3.68,3.45-5.51,2.47-3.55,3.8-5.19a13.41,13.41,0,0,1,4-3.45,8.18,8.18,0,0,1,3.8-1.06,5.85,5.85,0,0,1,5.26,2.59,11.48,11.48,0,0,1,1.71,6.43c0,.59,0,1.31-.1,2.15s-.14,1.75-.21,2.7-.13,1.93-.2,2.91-.1,1.9-.1,2.77a26.45,26.45,0,0,0,.17,3.14,9.3,9.3,0,0,0,.65,2.63,4.09,4.09,0,0,0,1.36,1.78,3.89,3.89,0,0,0,2.33.65,7.9,7.9,0,0,0,5.06-2,27.65,27.65,0,0,0,4.54-4.78,44.79,44.79,0,0,0,3.63-5.64c1-1.92,1.78-3.46,2.29-4.65a2.61,2.61,0,0,1,2.39-1.57,2.34,2.34,0,0,1,1.88.85,2.78,2.78,0,0,1,.72,1.81,2.38,2.38,0,0,1-.21,1c-.18.37-.55,1.12-1.09,2.26s-1.27,2.45-2.16,3.93-1.92,3-3.11,4.71a30.74,30.74,0,0,1-3.93,4.55,21.75,21.75,0,0,1-4.65,3.42,10.71,10.71,0,0,1-5.23,1.36,9.29,9.29,0,0,1-5-1.19,8.63,8.63,0,0,1-3-3.15,12.73,12.73,0,0,1-1.47-4.3,30.32,30.32,0,0,1-.38-4.75c0-.69,0-1.46.1-2.33s.16-1.78.28-2.73.2-1.92.27-2.87.1-1.87.1-2.74a4.71,4.71,0,0,0-.68-3,1.87,1.87,0,0,0-1.23-.79,4,4,0,0,0-2.5,1.27,24.06,24.06,0,0,0-2.94,3.31q-1.53,2.06-3.14,4.62c-1.07,1.71-2.07,3.4-3,5.09s-1.8,3.29-2.6,4.82-1.42,2.79-1.88,3.79a10.25,10.25,0,0,1-2.73,3.87,4.74,4.74,0,0,1-2.8,1,4.27,4.27,0,0,1-3.18-1.2,4.56,4.56,0,0,1-1.2-3.38c0-.32,0-.95.14-1.88s.2-2,.34-3.35.27-2.7.41-4.21.27-3,.41-4.47.25-2.86.34-4.14.14-2.35.14-3.21c0-1.14-.05-2.24-.14-3.28a3.18,3.18,0,0,0-.54-1.92c-.41.14-1.14,1-2.19,2.56a54.75,54.75,0,0,0-4,8.31,2.51,2.51,0,0,1-1,1.16,2.72,2.72,0,0,1-1.44.41,2.32,2.32,0,0,1-1.84-.78,2.69,2.69,0,0,1-.69-1.82,2.86,2.86,0,0,1,.21-1,48.94,48.94,0,0,1,5.78-10.77c1.8-2.3,3.58-3.45,5.36-3.45a4.42,4.42,0,0,1,2.67.79,5.55,5.55,0,0,1,1.74,2.08,11.67,11.67,0,0,1,1,2.87,17.15,17.15,0,0,1,.31,3.22c0,.82-.06,2.09-.17,3.82s-.27,3.59-.45,5.58-.35,4-.51,5.91S406.07,177.71,405.93,179Z"/><path class="cls-3" d="M509.1,116.75a2.2,2.2,0,0,1-.75,1.75,2.72,2.72,0,0,1-1.84.65H471.85v.75a69.06,69.06,0,0,1-.62,8.89q-.62,4.71-1.67,9.4t-2.39,9.12c-.89,3-1.8,5.7-2.74,8.2a68.7,68.7,0,0,1-2.77,6.53,23.35,23.35,0,0,1-2.46,4.14,40.43,40.43,0,0,0,2.12,5.84,24.16,24.16,0,0,0,2.77,4.72,13.75,13.75,0,0,0,3.32,3.18,6.88,6.88,0,0,0,3.82,1.16,7.28,7.28,0,0,0,4.75-2,27.69,27.69,0,0,0,4.38-4.78,49.49,49.49,0,0,0,3.55-5.61,46.28,46.28,0,0,0,2.23-4.54,2.4,2.4,0,0,1,2.39-1.64,2.38,2.38,0,0,1,1.88.82,2.63,2.63,0,0,1,.72,1.77,2.38,2.38,0,0,1-.21,1q-.21.48-1,2.19c-.52,1.14-1.21,2.46-2.05,4s-1.82,3.09-2.94,4.76a29.55,29.55,0,0,1-3.76,4.54,21.56,21.56,0,0,1-4.48,3.42,10,10,0,0,1-5.06,1.37,13,13,0,0,1-8.47-3.08,24.35,24.35,0,0,1-6.39-8.61,51.85,51.85,0,0,1-4-13.13,93,93,0,0,1-1.37-16.61c0-1.5,0-3.27.07-5.3s.13-4.17.27-6.42.34-4.58.62-7,.63-4.72,1.09-7H428.92a2.77,2.77,0,0,1-1.85-.65,2.41,2.41,0,0,1,0-3.49,2.77,2.77,0,0,1,1.85-.65h25.7a31.67,31.67,0,0,1,1.61-4.51,16.19,16.19,0,0,1,2.12-3.55,9.34,9.34,0,0,1,2.66-2.36,6.37,6.37,0,0,1,3.25-.86,5.16,5.16,0,0,1,3,.86,7.06,7.06,0,0,1,2.16,2.36,13.22,13.22,0,0,1,1.4,3.55,35.94,35.94,0,0,1,.79,4.51h34.93a2.72,2.72,0,0,1,1.84.65A2.21,2.21,0,0,1,509.1,116.75Zm-51.47,42.59a89.52,89.52,0,0,0,3.73-9.74c1.11-3.48,2.07-7,2.87-10.56s1.41-7,1.84-10.46a74.16,74.16,0,0,0,.65-9.43h-8.06a82,82,0,0,0-1.54,10.49q-.58,6.26-.58,15.21,0,5,.27,8.37A51.42,51.42,0,0,0,457.63,159.34ZM464,108.21c-.41,0-1,.44-1.78,1.33a14.79,14.79,0,0,0-2.32,4.82h6.56a18.93,18.93,0,0,0-1-4.51C465,108.76,464.53,108.21,464,108.21Z"/><path class="cls-3" d="M540,166.11l-1.13,2.29c-.57,1.16-1.3,2.5-2.18,4s-1.93,3.08-3.11,4.72a31.65,31.65,0,0,1-4,4.51,21.53,21.53,0,0,1-4.72,3.38,11.23,11.23,0,0,1-5.33,1.33,9.39,9.39,0,0,1-6.66-2.52,14.73,14.73,0,0,1-3.93-6.36,20,20,0,0,1-5.54,6.18,10.78,10.78,0,0,1-11,1.37,9.74,9.74,0,0,1-3.48-2.6,12,12,0,0,1-2.23-3.93,14.93,14.93,0,0,1-.78-4.92,22.88,22.88,0,0,1,1.81-9.4,21.86,21.86,0,0,1,4.61-6.8,19.15,19.15,0,0,1,6.19-4.1,17.44,17.44,0,0,1,6.53-1.37,12.76,12.76,0,0,1,3.9.58,18.83,18.83,0,0,1,3,1.27,12.05,12.05,0,0,1,1.95,1.26l.75.65a2.84,2.84,0,0,1,.75,1.85,2.54,2.54,0,0,1-.75,1.81,2.4,2.4,0,0,1-1.78.78,2.54,2.54,0,0,1-1.85-.75,7.92,7.92,0,0,0-.61-.51,8.15,8.15,0,0,0-1.3-.79,10.68,10.68,0,0,0-1.95-.71,9.5,9.5,0,0,0-2.56-.31,12.12,12.12,0,0,0-4.51,1,12.67,12.67,0,0,0-4.38,3,16.63,16.63,0,0,0-3.31,5.06,17.84,17.84,0,0,0-1.34,7.21,12.52,12.52,0,0,0,.28,2.63,7.38,7.38,0,0,0,.95,2.43,5.35,5.35,0,0,0,1.85,1.78,5.62,5.62,0,0,0,2.87.68,6.37,6.37,0,0,0,2.84-.82,10.35,10.35,0,0,0,3.07-2.53,18.29,18.29,0,0,0,2.67-4.31,21.5,21.5,0,0,0,1.68-6.15,2.55,2.55,0,0,1,.88-1.61,2.66,2.66,0,0,1,1.78-.65,2.27,2.27,0,0,1,1.68.76,2.7,2.7,0,0,1,.78,1.71c.05.86.14,2.08.28,3.65a21.87,21.87,0,0,0,.92,4.69,11.39,11.39,0,0,0,2.15,4,4.91,4.91,0,0,0,4,1.71,6.66,6.66,0,0,0,3.24-.89,15.4,15.4,0,0,0,3.15-2.36,27.82,27.82,0,0,0,2.94-3.35c.93-1.25,1.79-2.52,2.56-3.79s1.46-2.51,2-3.69,1.1-2.21,1.51-3.08a2.61,2.61,0,0,1,2.39-1.57,2.34,2.34,0,0,1,1.88.85,2.78,2.78,0,0,1,.72,1.81A2.38,2.38,0,0,1,540,166.11Z"/><path class="cls-3" d="M612.1,166.25c-.27.5-.74,1.41-1.4,2.73a42.21,42.21,0,0,1-2.66,4.48,53.31,53.31,0,0,1-4,5.16,33,33,0,0,1-5.34,4.89,28.25,28.25,0,0,1-6.73,3.65,22.25,22.25,0,0,1-8.1,1.44,16.2,16.2,0,0,1-6.9-1.4,14.55,14.55,0,0,1-5.13-4,17.61,17.61,0,0,1-3.21-6,25.62,25.62,0,0,1-1.1-7.72,24.67,24.67,0,0,1,1.17-7.69,21.06,21.06,0,0,1,3.17-6.26,15.91,15.91,0,0,1,4.69-4.2,11.18,11.18,0,0,1,5.67-1.54,10.44,10.44,0,0,1,4.1.79,9.43,9.43,0,0,1,3.11,2.08,10.18,10.18,0,0,1,2,2.87,7.52,7.52,0,0,1,.72,3.15,10,10,0,0,1-.37,2.8,9.79,9.79,0,0,1-1,2.29,5.36,5.36,0,0,1-1.33,1.57,2.49,2.49,0,0,1-1.51.59,2.46,2.46,0,0,1-1.88-.76,2.55,2.55,0,0,1-.72-1.84,1.85,1.85,0,0,1,.24-1c.16-.27.35-.56.55-.85a4.7,4.7,0,0,0,.55-1.1,4.88,4.88,0,0,0,.24-1.67,3.42,3.42,0,0,0-1.34-2.6,5,5,0,0,0-3.38-1.16,6.54,6.54,0,0,0-3.66,1.16,11.14,11.14,0,0,0-3,3.11,16.78,16.78,0,0,0-2.08,4.58,19.18,19.18,0,0,0-.79,5.57,20.54,20.54,0,0,0,.68,5.33,14.26,14.26,0,0,0,2,4.48,10.32,10.32,0,0,0,3.46,3.11,10,10,0,0,0,4.95,1.16,17.35,17.35,0,0,0,6.84-1.33,25.28,25.28,0,0,0,5.74-3.38,29.48,29.48,0,0,0,4.58-4.48,53.64,53.64,0,0,0,3.38-4.58,35.45,35.45,0,0,0,2.19-3.76,20.43,20.43,0,0,0,.92-2,2.13,2.13,0,0,1,.93-1.06,2.74,2.74,0,0,1,1.4-.37,2.38,2.38,0,0,1,1.88.82,2.71,2.71,0,0,1,.72,1.84A3.26,3.26,0,0,1,612.1,166.25Z"/><path class="cls-3" d="M647.05,166.25c-.5,1.05-1.13,2.29-1.88,3.72s-1.6,2.93-2.56,4.48a53.24,53.24,0,0,1-3.21,4.61,29.17,29.17,0,0,1-3.87,4.11,20.36,20.36,0,0,1-4.44,2.94,11.52,11.52,0,0,1-5,1.12A10.43,10.43,0,0,1,619,184.7a20.87,20.87,0,0,1-5-6.63,44,44,0,0,1-3.31-9.33,95.83,95.83,0,0,1-2-10.66c-.46-3.62-.76-7.15-.92-10.56s-.24-6.45-.24-9.1q0-5.73.37-11.89t1.2-12q.83-5.88,2.09-11.14a54.71,54.71,0,0,1,3-9.23,21.5,21.5,0,0,1,4-6.29,7,7,0,0,1,5.13-2.33,8,8,0,0,1,4.07,1.06,8.23,8.23,0,0,1,3,3.46,22.13,22.13,0,0,1,1.91,6.22,53.8,53.8,0,0,1,.69,9.36,72.77,72.77,0,0,1-1.44,14.12,120.12,120.12,0,0,1-3.9,14.66A147.89,147.89,0,0,1,622,149.12q-3.35,7.35-7.17,14.32,1.69,8.69,4.58,13.64t6.9,5a8,8,0,0,0,5.26-2.16,28.17,28.17,0,0,0,4.65-5.09,50.92,50.92,0,0,0,3.73-6q1.61-3,2.49-4.89a2.53,2.53,0,0,1,2.33-1.43,2.38,2.38,0,0,1,1.88.82,2.7,2.7,0,0,1,.71,1.84A3.2,3.2,0,0,1,647.05,166.25ZM612.8,138.77c0,2.91.07,5.72.21,8.4s.32,5.27.55,7.73q2.87-5.53,5.46-11.79t4.58-12.65a111.9,111.9,0,0,0,3.18-12.71,64.83,64.83,0,0,0,1.2-12.07q0-8.07-1.3-11.55t-3.49-3.49c-1,0-1.88.66-2.76,2a23.28,23.28,0,0,0-2.5,5.4,67.26,67.26,0,0,0-2.12,8.07c-.64,3.1-1.17,6.43-1.61,10s-.77,7.27-1,11.14S612.8,134.94,612.8,138.77Z"/><path class="cls-3" d="M695.94,166.11l-1.12,2.29c-.57,1.16-1.3,2.5-2.19,4s-1.93,3.08-3.11,4.72a31.65,31.65,0,0,1-4,4.51,21.71,21.71,0,0,1-4.71,3.38,11.3,11.3,0,0,1-5.34,1.33,9.39,9.39,0,0,1-6.66-2.52,14.73,14.73,0,0,1-3.93-6.36,20,20,0,0,1-5.54,6.18,10.76,10.76,0,0,1-11,1.37,9.78,9.78,0,0,1-3.49-2.6,11.82,11.82,0,0,1-2.22-3.93,14.67,14.67,0,0,1-.79-4.92,23,23,0,0,1,1.81-9.4,21.71,21.71,0,0,1,4.62-6.8,19.11,19.11,0,0,1,6.18-4.1,17.48,17.48,0,0,1,6.53-1.37,12.76,12.76,0,0,1,3.9.58,18.45,18.45,0,0,1,3,1.27A12.05,12.05,0,0,1,669.9,155l.75.65a2.84,2.84,0,0,1,.75,1.85,2.54,2.54,0,0,1-.75,1.81,2.38,2.38,0,0,1-1.78.78,2.5,2.5,0,0,1-1.84-.75c-.09-.09-.3-.26-.62-.51a8.15,8.15,0,0,0-1.3-.79,10.3,10.3,0,0,0-1.94-.71,9.63,9.63,0,0,0-2.57-.31,12.16,12.16,0,0,0-4.51,1,12.63,12.63,0,0,0-4.37,3A16.47,16.47,0,0,0,648.4,166a17.85,17.85,0,0,0-1.33,7.21,13.19,13.19,0,0,0,.27,2.63,7.19,7.19,0,0,0,1,2.43,5.32,5.32,0,0,0,1.84,1.78,5.64,5.64,0,0,0,2.87.68,6.37,6.37,0,0,0,2.84-.82,10.39,10.39,0,0,0,3.08-2.53,18,18,0,0,0,2.66-4.31,21.5,21.5,0,0,0,1.68-6.15,2.52,2.52,0,0,1,.89-1.61,2.63,2.63,0,0,1,1.77-.65,2.27,2.27,0,0,1,1.68.76,2.72,2.72,0,0,1,.79,1.71c0,.86.13,2.08.27,3.65a22.5,22.5,0,0,0,.92,4.69,11.55,11.55,0,0,0,2.15,4,4.91,4.91,0,0,0,4,1.71,6.69,6.69,0,0,0,3.25-.89A15.09,15.09,0,0,0,682.1,178a26.18,26.18,0,0,0,2.94-3.35c.93-1.25,1.79-2.52,2.56-3.79s1.46-2.51,2-3.69,1.1-2.21,1.51-3.08a2.63,2.63,0,0,1,1-1.16,2.51,2.51,0,0,1,1.4-.41,2.33,2.33,0,0,1,1.88.85,2.78,2.78,0,0,1,.72,1.81A2.38,2.38,0,0,1,695.94,166.11Z"/><path class="cls-3" d="M699.11,157.09a34.48,34.48,0,0,1-.69,3.45c-.27,1.07-.53,2-.78,2.8s-.47,1.45-.65,1.95a4.3,4.3,0,0,1-.35.82,2.4,2.4,0,0,1-2.39,1.57,2.65,2.65,0,0,1-1.78-.72,2.31,2.31,0,0,1-.82-1.81,1.1,1.1,0,0,1,.14-.61,6.6,6.6,0,0,0,.41-.82,17.75,17.75,0,0,0,.68-2.05c.28-1,.62-2.44,1-4.45-.78,0-1.57,0-2.39-.06a7.65,7.65,0,0,1-2.29-.48,4.06,4.06,0,0,1-1.75-1.3,4,4,0,0,1-.68-2.46,10.89,10.89,0,0,1,.65-3.15,20.62,20.62,0,0,1,1.74-3.89,16.45,16.45,0,0,1,2.46-3.32,4,4,0,0,1,2.74-1.4,3.21,3.21,0,0,1,2.56,1.16,8.41,8.41,0,0,1,1.54,2.84,19.83,19.83,0,0,1,.79,3.52,25.33,25.33,0,0,1,.24,3.21c.77,0,1.53,0,2.29,0s1.47,0,2.15,0a9.08,9.08,0,0,1,5.95,1.71c1.36,1.14,2.05,3,2.05,5.61a26.89,26.89,0,0,1-.21,3.28c-.14,1.14-.3,2.31-.48,3.52s-.34,2.4-.48,3.59a31.93,31.93,0,0,0-.2,3.48,10.54,10.54,0,0,0,.68,4.07,7.59,7.59,0,0,0,1.71,2.57,6,6,0,0,0,2.19,1.33,6.91,6.91,0,0,0,2.12.37,9.16,9.16,0,0,0,5.54-1.91,26.27,26.27,0,0,0,4.78-4.61,44.49,44.49,0,0,0,3.93-5.71c1.16-2,2.13-3.76,2.91-5.27a2.35,2.35,0,0,1,.95-.95,2.63,2.63,0,0,1,1.3-.34,2.43,2.43,0,0,1,1.92.78,2.64,2.64,0,0,1,.68,1.74,2.79,2.79,0,0,1-.27,1.24q-1.57,2.79-3.66,6.32a45.45,45.45,0,0,1-4.75,6.6,27.45,27.45,0,0,1-6,5.19,13.28,13.28,0,0,1-7.28,2.12,11.94,11.94,0,0,1-4.65-.92,11,11,0,0,1-3.8-2.67,13,13,0,0,1-2.56-4.31,16.31,16.31,0,0,1-1-5.77,33.89,33.89,0,0,1,.69-6.8,33.1,33.1,0,0,0,.68-6.46,2.82,2.82,0,0,0-.58-2,3.55,3.55,0,0,0-2.56-.65h-2.09C700.78,157,700,157,699.11,157.09ZM694.53,152c0-.32,0-.74,0-1.27a15.25,15.25,0,0,0-.14-1.53,7.37,7.37,0,0,0-.27-1.3c-.11-.37-.24-.55-.38-.55s-.3.17-.51.51-.42.75-.65,1.23a12.66,12.66,0,0,0-.61,1.54c-.19.55-.32,1-.41,1.37Z"/><path class="cls-3" d="M787.92,166.11l-1.13,2.29c-.57,1.16-1.3,2.5-2.18,4s-1.93,3.08-3.12,4.72a31,31,0,0,1-4,4.51,21.53,21.53,0,0,1-4.72,3.38,11.23,11.23,0,0,1-5.33,1.33,9.39,9.39,0,0,1-6.66-2.52,14.73,14.73,0,0,1-3.93-6.36,20,20,0,0,1-5.54,6.18,10.78,10.78,0,0,1-11,1.37,9.74,9.74,0,0,1-3.48-2.6,12,12,0,0,1-2.23-3.93,14.93,14.93,0,0,1-.78-4.92,22.88,22.88,0,0,1,1.81-9.4,21.69,21.69,0,0,1,4.61-6.8,19,19,0,0,1,6.19-4.1,17.44,17.44,0,0,1,6.53-1.37,12.76,12.76,0,0,1,3.9.58,18.83,18.83,0,0,1,3,1.27,12.05,12.05,0,0,1,2,1.26l.75.65a2.84,2.84,0,0,1,.75,1.85,2.54,2.54,0,0,1-.75,1.81,2.4,2.4,0,0,1-1.78.78,2.54,2.54,0,0,1-1.85-.75,7.92,7.92,0,0,0-.61-.51,8.15,8.15,0,0,0-1.3-.79,10.68,10.68,0,0,0-2-.71,9.5,9.5,0,0,0-2.56-.31,12.12,12.12,0,0,0-4.51,1,12.67,12.67,0,0,0-4.38,3,16.63,16.63,0,0,0-3.31,5.06,17.84,17.84,0,0,0-1.34,7.21,12.52,12.52,0,0,0,.28,2.63,7.38,7.38,0,0,0,.95,2.43,5.35,5.35,0,0,0,1.85,1.78,5.62,5.62,0,0,0,2.87.68,6.37,6.37,0,0,0,2.84-.82,10.35,10.35,0,0,0,3.07-2.53,18.29,18.29,0,0,0,2.67-4.31,21.18,21.18,0,0,0,1.67-6.15,2.61,2.61,0,0,1,.89-1.61,2.66,2.66,0,0,1,1.78-.65,2.27,2.27,0,0,1,1.68.76,2.7,2.7,0,0,1,.78,1.71c0,.86.14,2.08.28,3.65a21.87,21.87,0,0,0,.92,4.69,11.39,11.39,0,0,0,2.15,4,4.91,4.91,0,0,0,4,1.71,6.66,6.66,0,0,0,3.24-.89,15.4,15.4,0,0,0,3.15-2.36,27.82,27.82,0,0,0,2.94-3.35c.93-1.25,1.79-2.52,2.56-3.79s1.46-2.51,2-3.69,1.1-2.21,1.51-3.08a2.61,2.61,0,0,1,2.39-1.57,2.34,2.34,0,0,1,1.88.85,2.78,2.78,0,0,1,.72,1.81A2.38,2.38,0,0,1,787.92,166.11Z"/></svg>