<svg id="Layer_1" data-name="Layer 1" xmlns="http://www.w3.org/2000/svg" viewBox="0 0 1278.72 626.55"><defs><style>.cls-1{fill:#1b3764;}.cls-2{fill:#c7e2f6;}.cls-3{font-size:100px;fill:#fff;font-family:OpenSans-ExtraBold, Open Sans;font-weight:800;}.cls-4{font-size:140px;fill:#66a5da;font-family:Sacramento-Regular, Sacramento;letter-spacing:0.01em;}</style></defs><rect class="cls-1" width="1277.27" height="626.55"/><g id="LisKYP.tif"><path class="cls-2" d="M189.87,235.64a25.45,25.45,0,0,1-5.52-6.66"/><path class="cls-2" d="M184.35,224.6a18.26,18.26,0,0,1,4.69-6.19c2.21-2.12,9.57-9.31,11.75-11.46,1.91-1.89,3.77.63,3.77.63l-.79,5s-7.88,8.41-10.1,10.63c-3.59,3.58-3.57,3.6.14,7.1,1.31,1.23,2.5,1.33,3.79,0l29.75-29.75c1.28-1.27,1.35-2.5,0-3.78l-.46-.46c-3.19-3.23-3.19-3.23-6.32-.1-2.89,2.89-16.84,16.32-16.84,16.32l-.63-3.15s-4.29-.55-2.7-2.16c3.49-3.54,13.83-14.2,17.41-17.64a8.29,8.29,0,0,1,11.66.05c.85.8,1.66,1.65,2.48,2.48,4.12,4.14,4.22,8.68.16,12.86-1,1.06-1.18,1.72-.06,2.83q10.85,10.71,21.54,21.54c1.08,1.1,1.69.88,2.63-.09q3.72-3.87,7.58-7.6c3-2.9,7.2-3.54,10.43-1.4a21.89,21.89,0,0,1,5.86,5.85,7.93,7.93,0,0,1-.84,9.74c-1.57,1.53-1.34,2.29.1,3.72q43.77,43.64,87.42,87.37c5.39,5.39,6.33,12,2.61,18.57a2.91,2.91,0,0,0-.17,2.67q1.69,4.85,3.27,9.74a7.31,7.31,0,0,1-1.61,7.55c-1.37,1.46-1.14,2.2.16,3.49,12,11.93,8.13,8.42,20.11,20.4,2.54,2.55,4.89,4.78,2.05,7a3.14,3.14,0,0,1-3.74.16c-.92-.83-4.07-4-4.94-4.9-11.78-11.76-6.41-6.39-18.15-18.2-1.21-1.23-2-1.53-3.29-.12a8,8,0,0,1-9.18,2.15q-4.53-1.63-9.1-3.14c-.65-.21-1.26-.61-2.06-.11-6.69,4.16-14.29,2.15-19.92-3.54-28.68-29-57.59-57.7-86.37-86.56-1.32-1.33-2-1.47-3.4-.07a8.12,8.12,0,0,1-11.13,0c-.92-.84-1.77-1.74-2.65-2.62-4.31-4.34-4.29-9,.09-13.39,2.37-2.38,4.72-4.79,7.14-7.12.88-.84.95-1.43,0-2.3-1.92-1.8-3.77-3.67-5.58-5.57-1.63-1.71-3.65-7.38-3.65-7.38s3.9-1.23,5.57.38c1.89,1.83,6.57,6,8.37,7.92.85.91,1.35.88,2.22,0q7.77-7.89,15.65-15.66c.73-.73,1-1.19.1-2.07q-11.15-11-22.17-22.15c-.84-.85-1.34-.74-2.11.05q-7.78,7.86-15.66,15.64c-.93.92-.8,1.47.07,2.28,1.65,1.55,12,12.36,13.53,14s-2.25,1.93-2.25,1.93,2,6.57.33,5.07c-1.48-1.31-14.3-14.09-15.56-15.59s-2.29-1.59-3.79-.06c-3.39,3.47-8.25,3.41-11.76.11a25.45,25.45,0,0,1-5.52-6.66ZM341.18,365.14c7-7,14-13.91,20.91-20.93,4-4.07,3.93-8.71-.08-12.73q-38.58-38.6-77.14-77.2c-1.24-1.24-1.95-1.44-3.29-.08q-15.09,15.27-30.36,30.38c-1.17,1.16-1.46,1.92-.08,3.12,1.76,1.54,3.36,3.25,5,4.95.78.82,1.33.87,2.12,0,1.44-1.55,3-3,4.49-4.5,1.74-1.65,3.56-1.68,5-.17,1.29,1.35,1.2,3.27-.34,4.9s-3,3-4.49,4.49c-.66.64-1,1.1-.14,1.92,2.07,1.95,4.07,4,6,6,.68.71,1.11.67,1.75,0,1.41-1.49,2.87-2.92,4.34-4.35,1.84-1.79,3.77-2,5.21-.61,1.6,1.55,1.45,3.3-.51,5.33-1.31,1.37-2.64,2.74-4,4-.85.8-1.06,1.38-.09,2.29,1.93,1.79,3.78,3.66,5.58,5.58.87.93,1.46.87,2.28,0,1.28-1.39,2.67-2.7,4-4,2-2,3.75-2.15,5.33-.58s1.23,3.42-.69,5.37c-1.32,1.36-2.65,2.72-4,4-.78.72-1,1.22-.1,2.07,2,1.9,4,3.87,5.89,5.89.78.83,1.24.64,1.91-.07q2.19-2.31,4.49-4.5c1.71-1.61,3.7-1.68,5.05-.25s1.33,3.22-.39,5c-1.42,1.47-2.85,2.93-4.34,4.33-.81.76-.93,1.31-.06,2.13q2.94,2.79,5.73,5.73c.83.88,1.38.73,2.13-.06,1.45-1.55,2.95-3,4.49-4.5s3.39-1.63,4.85-.23,1.37,3.28-.11,4.88-2.94,3.06-4.5,4.5c-.88.81-1,1.34-.05,2.23,1.93,1.78,3.78,3.66,5.58,5.57.82.87,1.36,1,2.23.06,1.32-1.47,2.75-2.83,4.17-4.2,1.83-1.77,3.79-1.94,5.21-.51s1.4,3.28-.44,5.16c-1.42,1.47-2.89,2.89-4.32,4.35-.39.39-1.09.85-.45,1.44,2.53,2.36,4.43,5.54,8.12,6.41a8.81,8.81,0,0,0,1.38.18A8.57,8.57,0,0,0,341.18,365.14ZM226.8,277.48c1.32.84,2.25-.47,3.12-1.34l43.24-43.24c2.15-2.15,2.14-2.61,0-4.79-.52-.52-1-1-1.55-1.55a2,2,0,0,0-3.09,0c-.27.25-.52.51-.78.77l-43.39,43.4c-.65.65-1.54,1.19-1.4,2.79A9.88,9.88,0,0,0,226.8,277.48Zm14-.22c1.47,1.28,2.53,3.74,4.33,3.72,1.65,0,2.81-2.32,4.15-3.66,9.21-9.17,18.37-18.39,27.61-27.54,1.29-1.27,1.75-2.16.09-3.42-1.44-1.1-2.4-3.46-4-3.47s-2.69,2.22-4,3.5q-14.06,14-28.05,28c-.46.45-.87.94-1.37,1.5A16.73,16.73,0,0,0,240.76,277.26Zm109,88.54c-.77.76-.61,1.18.36,1.5,2.07.68,4.16,1.35,6.21,2.1,1,.35,1.51-.14,2.1-.72,2.32-2.32,4.63-4.65,7-7a2,2,0,0,0,.69-2.34c-.85-2.31-1.66-4.65-2.6-7.3C358.77,356.83,354.29,361.33,349.8,365.8Z"/></g><text class="cls-3" transform="translate(381.69 292.24)">Find My Vax</text><text class="cls-4" transform="translate(487.44 366.64)">santa clara</text></svg>